<?xml version="1.0" encoding="UTF-8"?>
<svg xmlns="http://www.w3.org/2000/svg" xmlns:xlink="http://www.w3.org/1999/xlink" width="29px" height="29px" viewBox="0 0 29 29" version="1.1">
<g id="surface1">
<path style=" stroke:none;fill-rule:nonzero;fill:rgb(0%,0%,0%);fill-opacity:1;" d="M 13.269531 1.816406 C 9.476562 2.261719 6.140625 4.65625 4.496094 8.109375 L 4.292969 8.550781 L 3.308594 8.550781 C 2.769531 8.550781 2.191406 8.582031 2.027344 8.613281 C 1.070312 8.820312 0.261719 9.628906 0.0625 10.582031 C -0.0234375 10.988281 -0.0234375 14.617188 0.0625 15.019531 C 0.164062 15.515625 0.390625 15.914062 0.757812 16.289062 C 0.953125 16.476562 1.222656 16.6875 1.375 16.761719 C 1.929688 17.027344 2.117188 17.046875 4.125 17.046875 C 5.15625 17.046875 6.003906 17.03125 6.003906 17.015625 C 6.003906 16.992188 5.878906 16.578125 5.726562 16.089844 C 5.574219 15.605469 5.410156 15.003906 5.359375 14.753906 C 4.71875 11.542969 5.660156 8.429688 7.964844 6.144531 C 9.789062 4.332031 12.335938 3.351562 14.917969 3.472656 C 16.265625 3.535156 17.417969 3.828125 18.605469 4.417969 C 22.207031 6.195312 24.277344 10.019531 23.761719 13.949219 C 23.226562 18.011719 20.238281 21.199219 16.234375 21.980469 C 15.921875 22.042969 15.28125 22.117188 14.816406 22.140625 C 13.882812 22.199219 13.546875 22.28125 13.0625 22.605469 C 12.273438 23.125 11.839844 24.15625 11.996094 25.097656 C 12.09375 25.664062 12.308594 26.082031 12.710938 26.484375 C 13.730469 27.5 15.269531 27.5 16.289062 26.484375 C 16.867188 25.902344 17.050781 25.371094 17.050781 24.238281 C 17.050781 23.742188 17.066406 23.550781 17.121094 23.539062 C 19.902344 22.785156 22.09375 21.234375 23.628906 18.953125 C 23.878906 18.578125 24.214844 18 24.371094 17.660156 L 24.667969 17.046875 L 25.714844 17.046875 C 26.292969 17.046875 26.875 17.019531 27.011719 16.988281 C 27.953125 16.769531 28.738281 15.96875 28.9375 15.019531 C 29.023438 14.613281 29.023438 10.984375 28.9375 10.582031 C 28.734375 9.628906 27.925781 8.820312 26.972656 8.613281 C 26.808594 8.582031 26.21875 8.550781 25.667969 8.550781 L 24.667969 8.546875 L 24.378906 7.941406 C 22.941406 4.949219 20 2.652344 16.761719 1.988281 C 15.679688 1.765625 14.300781 1.699219 13.269531 1.816406 Z M 13.269531 1.816406 "/>
<path style=" stroke:none;fill-rule:nonzero;fill:rgb(0%,0%,0%);fill-opacity:1;" d="M 13.554688 5.210938 C 11.828125 5.433594 10.199219 6.257812 8.960938 7.554688 C 6.496094 10.128906 6.167969 14.136719 8.179688 17.101562 L 8.492188 17.554688 L 8.347656 17.835938 C 8.117188 18.300781 7.617188 18.65625 7.109375 18.730469 L 6.855469 18.765625 L 6.855469 20.453125 L 11.203125 20.429688 C 15.359375 20.414062 15.570312 20.40625 16.058594 20.292969 C 17.167969 20.039062 18.226562 19.558594 19.035156 18.953125 C 20.582031 17.785156 21.613281 16.148438 22.015625 14.214844 C 22.15625 13.546875 22.152344 12.046875 22.015625 11.390625 C 21.664062 9.746094 21.019531 8.546875 19.859375 7.390625 C 18.75 6.285156 17.621094 5.675781 16.058594 5.324219 C 15.464844 5.195312 14.171875 5.132812 13.554688 5.210938 Z M 11.953125 12.800781 L 11.953125 13.648438 L 10.253906 13.648438 L 10.253906 11.949219 L 11.953125 11.949219 Z M 15.351562 12.800781 L 15.351562 13.648438 L 13.652344 13.648438 L 13.652344 11.949219 L 15.351562 11.949219 Z M 18.75 12.800781 L 18.75 13.648438 L 17.050781 13.648438 L 17.050781 11.949219 L 18.75 11.949219 Z M 18.75 12.800781 "/>
</g>
</svg>
